HIERARCHY
ROOT Hips
{
 OFFSET 0.000000 0.000000 0.000000
 CHANNELS 6 Xposition Yposition Zposition Yrotation Xrotation Zrotation
 JOINT Chest
 {
  OFFSET 0.000000 9.585900 0.002600
  CHANNELS 3 Yrotation Xrotation Zrotation
  JOINT Chest2
  {
   OFFSET 0.000000 9.601200 -0.005300
   CHANNELS 3 Yrotation Xrotation Zrotation
   JOINT Chest3
   {
    OFFSET 0.000000 9.561800 0.000000
    CHANNELS 3 Yrotation Xrotation Zrotation
    JOINT Chest4
    {
     OFFSET 0.000000 9.552100 0.000000
     CHANNELS 3 Yrotation Xrotation Zrotation
     JOINT Neck
     {
      OFFSET 0.000000 14.453000 0.000000
      CHANNELS 3 Yrotation Xrotation Zrotation
      JOINT Head
      {
       OFFSET 0.000000 8.936500 -0.011300
       CHANNELS 3 Yrotation Xrotation Zrotation
       End Site
       {
        OFFSET 0.000000 17.073600 -0.006000
       }
      }
     }
     JOINT RightCollar
     {
      OFFSET -2.921100 9.558500 0.000000
      CHANNELS 3 Yrotation Xrotation Zrotation
      JOINT RightShoulder
      {
       OFFSET -13.519700 0.000000 0.000000
       CHANNELS 3 Yrotation Xrotation Zrotation
       JOINT RightElbow
       {
        OFFSET 0.000000 -29.696600 0.000000
        CHANNELS 3 Yrotation Xrotation Zrotation
        JOINT RightWrist
        {
         OFFSET 0.000000 -24.004700 0.000000
         CHANNELS 3 Yrotation Xrotation Zrotation
         End Site
         {
          OFFSET 0.000000 -17.728500 0.000000
         }
        }
       }
      }
     }
     JOINT LeftCollar
     {
      OFFSET 2.921100 9.558500 0.000000
      CHANNELS 3 Yrotation Xrotation Zrotation
      JOINT LeftShoulder
      {
       OFFSET 13.519700 0.000000 0.000000
       CHANNELS 3 Yrotation Xrotation Zrotation
       JOINT LeftElbow
       {
        OFFSET 0.000000 -29.696600 0.000000
        CHANNELS 3 Yrotation Xrotation Zrotation
        JOINT LeftWrist
        {
         OFFSET 0.000000 -24.004700 0.000000
         CHANNELS 3 Yrotation Xrotation Zrotation
         End Site
         {
          OFFSET 0.000000 -17.728500 0.000000
         }
        }
       }
      }
     }
    }
   }
  }
 }
 JOINT RightHip
 {
  OFFSET -7.771700 -0.012900 -0.001300
  CHANNELS 3 Yrotation Xrotation Zrotation
  JOINT RightKnee
  {
   OFFSET 0.000000 -40.869800 0.001200
   CHANNELS 3 Yrotation Xrotation Zrotation
   JOINT RightAnkle
   {
    OFFSET 0.000000 -39.717900 0.002100
    CHANNELS 3 Yrotation Xrotation Zrotation
    JOINT RightToe
    {
     OFFSET 0.000000 -4.965400 11.033500
     CHANNELS 3 Yrotation Xrotation Zrotation
     End Site
     {
      OFFSET 0.000000 -1.423100 5.872300
     }
    }
   }
  }
 }
 JOINT LeftHip
 {
  OFFSET 7.771700 -0.012900 -0.001300
  CHANNELS 3 Yrotation Xrotation Zrotation
  JOINT LeftKnee
  {
   OFFSET 0.000000 -40.869800 0.001200
   CHANNELS 3 Yrotation Xrotation Zrotation
   JOINT LeftAnkle
   {
    OFFSET 0.000000 -39.717900 0.002100
    CHANNELS 3 Yrotation Xrotation Zrotation
    JOINT LeftToe
    {
     OFFSET 0.000000 -4.965400 11.033500
     CHANNELS 3 Yrotation Xrotation Zrotation
     End Site
     {
      OFFSET 0.000000 -1.423100 5.872300
     }
    }
   }
  }
 }
}
MOTION
Frames: 6
Frame Time: 0.008333
-93.821073 57.779272 92.613731 176.243595 -32.270661 -1.435038 1.574271 22.031572 3.029518 0.106652 2.994070 0.359228 0.183135 4.866232 0.587464 1.007866 18.524652 2.369240 -2.519411 17.473062 -2.663458 -3.753126 -3.419027 -4.155506 5.206563 -2.497301 -2.572979 12.194044 -21.793567 -5.921066 -73.382383 -27.992392 91.848204 -4.759310 -24.849351 -57.548290 -8.886653 -3.015473 -1.708160 8.001356 -11.220583 -10.594688 66.342022 -24.925293 -87.431840 9.707891 -22.209041 32.780079 11.165304 -42.913268 -8.130887 -1.200925 69.213942 1.171581 8.704892 21.301023 6.074334 -0.301339 -15.823876 2.037965 -7.513521 -40.854622 2.901983 28.244882 67.005122 26.783436 -15.129658 4.578246 -3.744401 -0.019171 0.123957 0.058360
-93.821451 57.782401 92.617197 176.276768 -32.238710 -1.440517 1.556806 22.025814 3.006950 0.104640 2.982643 0.365589 0.189374 4.886047 0.576933 1.003888 18.500712 2.382708 -2.525840 17.445624 -2.686068 -3.759083 -3.486059 -4.173133 5.169076 -2.504660 -2.581188 12.064941 -21.758584 -5.845563 -73.578163 -28.048921 91.986207 -4.740658 -24.841369 -57.553873 -8.874007 -2.986806 -1.690807 8.171146 -11.198025 -10.528236 66.400512 -24.926787 -87.537632 9.730547 -22.241795 32.767109 11.150638 -42.940960 -8.158470 -1.245524 69.203127 1.134337 8.721476 21.343638 6.078775 -0.297097 -15.854805 2.030416 -7.547035 -40.893766 2.901022 28.188749 67.005385 26.724611 -15.115909 4.640002 -3.769736 -0.007594 0.097146 0.064365
-93.819613 57.785772 92.620915 176.285802 -32.211103 -1.449367 1.547567 22.009310 3.003095 0.114309 2.987088 0.364176 0.182122 4.885457 0.577068 1.012562 18.496943 2.384086 -2.538350 17.403688 -2.735241 -3.755315 -3.532843 -4.170930 5.132929 -2.513063 -2.591658 11.946769 -21.725456 -5.778971 -73.787890 -28.107453 92.125209 -4.721986 -24.828703 -57.561056 -8.853342 -2.957758 -1.678587 8.350076 -11.169555 -10.459105 66.479261 -24.944677 -87.654543 9.745960 -22.265568 32.759491 11.116582 -42.969663 -8.146237 -1.279794 69.185712 1.091450 8.744792 21.391584 6.084023 -0.297661 -15.885938 2.023148 -7.588844 -40.935002 2.926902 28.214531 67.018012 26.735058 -15.105914 4.688009 -3.776897 -0.016311 0.070296 0.056307
-93.819579 57.789372 92.624362 176.295086 -32.189574 -1.450289 1.533039 21.997025 2.989750 0.114786 2.991062 0.363510 0.184760 4.879254 0.580513 1.011589 18.520456 2.367403 -2.533888 17.358178 -2.741718 -3.750713 -3.590787 -4.197997 5.122077 -2.542796 -2.584141 11.828046 -21.690795 -5.730604 -74.011610 -28.162213 92.263132 -4.704944 -24.813358 -57.568355 -8.831297 -2.950204 -1.647630 8.546248 -11.129778 -10.395697 66.573477 -24.980784 -87.779355 9.753431 -22.285146 32.756853 11.092245 -42.989164 -8.141430 -1.309321 69.170077 1.047589 8.764450 21.424495 6.091170 -0.293464 -15.906224 2.018632 -7.602510 -40.960770 2.927930 28.190675 67.019758 26.709324 -15.091741 4.720893 -3.779112 -0.022141 0.063642 0.044100
-93.820284 57.793011 92.627828 176.299130 -32.173132 -1.446151 1.525435 21.986878 2.975804 0.109944 2.994004 0.363807 0.188733 4.875604 0.582818 1.014341 18.518472 2.367849 -2.537677 17.339265 -2.767806 -3.744056 -3.644853 -4.223414 5.108578 -2.544496 -2.590536 11.721789 -21.658801 -5.689638 -74.250475 -28.205869 92.401725 -4.695677 -24.799879 -57.571762 -8.808320 -2.918341 -1.636392 8.741695 -11.088573 -10.335345 66.683368 -25.034026 -87.908225 9.754889 -22.305278 32.760783 11.069500 -43.001969 -8.132288 -1.339254 69.153180 0.995536 8.783425 21.444937 6.100413 -0.296624 -15.915499 2.017735 -7.604328 -40.979188 2.923817 28.165780 67.016935 26.684977 -15.090817 4.755258 -3.791329 -0.027930 0.055917 0.040840
-93.819323 57.796897 92.631062 176.304553 -32.164585 -1.453768 1.522752 21.986771 2.970691 0.111612 2.994719 0.363339 0.189811 4.877505 0.581962 1.017817 18.521798 2.364444 -2.538931 17.310820 -2.778725 -3.734331 -3.695127 -4.247784 5.059374 -2.555186 -2.614283 11.648745 -21.641060 -5.623115 -74.500002 -28.229161 92.543931 -4.692176 -24.794510 -57.577200 -8.759223 -2.861745 -1.598450 8.911951 -11.081402 -10.297959 66.811579 -25.102369 -88.034749 9.753334 -22.326213 32.769999 11.047616 -43.009756 -8.116538 -1.321948 69.135643 1.002454 8.776541 21.485484 6.104599 -0.296922 -15.940877 2.015810 -7.619667 -40.993523 2.936161 28.166514 67.021787 26.682962 -15.080055 4.791515 -3.809350 -0.035243 0.041945 0.045602
